<?xml version="1.0" encoding="utf-8" ?>
<svg xmlns="http://www.w3.org/2000/svg" xmlns:xlink="http://www.w3.org/1999/xlink" width="512" height="512">
	<path fill="#E8C4FF" transform="scale(0.666667 0.666667)" d="M0 766.875L-0 -0L768 0L768 766.125L768 768C514.586 768 261.172 768 7.75851 768C6.26876 768 0.793871 768.402 0.0878906 767.725L0 766.875Z"/>
	<path fill="#FE343A" transform="scale(0.666667 0.666667)" d="M134.107 510.09L133.369 509.25L133.682 508.688C136.193 508.242 139.022 508.419 141.575 508.372C145.783 508.295 152.218 507.501 156.056 509.058C156.913 509.406 157.321 509.526 158.253 509.502L158.891 510.562C158.176 511.274 157.182 511.123 156.188 511.082C152.298 510.925 148.373 510.543 144.471 510.842C140.961 510.395 137.656 509.972 134.107 510.09Z"/>
	<path fill="#E4E2FE" transform="scale(0.666667 0.666667)" d="M0 766.875L768 766.125L768 768C514.586 768 261.172 768 7.75851 768C6.26876 768 0.793871 768.402 0.0878906 767.725L0 766.875Z"/>
	<path fill="white" transform="scale(0.666667 0.666667)" d="M150.747 388.343L151.186 387.843C154.696 384.353 158.72 381.839 159.369 376.521C160.8 364.792 145.738 360.488 139.86 353.019C139.672 351.287 139.548 349.68 139.821 347.952L139.936 347.262C140.08 346.314 140.386 345.536 140.654 344.627C141.527 341.676 143.211 339.005 144.813 336.407L145.425 335.438C150.54 328.336 158.293 321.072 166.825 318.468C169.847 317.546 173.055 317.444 176.134 316.857C178.363 316.432 180.576 316.35 182.839 316.241L183.013 369L183.328 369.663L183.686 405.339C181.644 404.751 179.344 402.639 177.569 401.413C175.27 399.826 172.865 398.382 170.433 397.008C164.157 393.462 157.526 390.753 150.747 388.343Z"/>
	<path fill="#E4E2FE" transform="scale(0.666667 0.666667)" d="M286.721 556.425C300.075 555.415 313.932 556.116 327.349 556.114C352.483 556.111 377.617 556.093 402.75 556.202C417.843 556.268 432.935 556.363 448.028 556.45C452.299 556.475 456.571 556.495 460.842 556.515C462.856 556.525 465.218 556.3 467.191 556.556L541.374 556.419L541.769 557.625C540.614 559.658 535.36 561.827 533.153 563.116C528.736 565.696 524.416 568.438 520.002 571.022C491.261 587.851 460.096 602.219 427.543 609.696C422.769 610.793 418.057 612.066 413.218 612.887C401.812 614.823 390.041 615.471 378.484 614.896C364.442 614.197 350.433 611.18 336.871 607.626C325.054 604.529 313.612 600.324 302.313 595.72C282.637 587.704 263.301 577.844 245.267 566.59C242.442 564.827 239.565 563.052 236.879 561.081C236.005 560.441 234.703 559.548 234.245 558.567L234.119 558.188L233.809 557.438L235.442 556.318L286.721 556.425Z"/>
	<path fill="white" transform="scale(0.666667 0.666667)" d="M286.721 556.425C300.075 555.415 313.932 556.116 327.349 556.114C352.483 556.111 377.617 556.093 402.75 556.202C417.843 556.268 432.935 556.363 448.028 556.45C452.299 556.475 456.571 556.495 460.842 556.515C462.856 556.525 465.218 556.3 467.191 556.556C470.729 557.106 474.385 556.561 477.938 556.692C478.965 556.73 479.751 556.665 480.447 557.438C479.902 558.489 478.739 558.895 477.75 559.454C475.049 560.981 472.31 562.378 469.574 563.836C458.47 569.75 447.625 575.773 436.11 580.896C430.102 583.568 424.029 585.908 417.847 588.137C410.922 590.635 403.705 593.085 396.38 594.057C379.313 596.32 360.448 591.14 344.632 585.036C335.533 581.524 326.816 577.367 317.967 573.286C310.229 569.718 302.434 566.302 294.899 562.309C292.812 561.204 288.896 559.643 287.354 557.851C287.105 557.562 286.887 556.8 286.721 556.425Z"/>
	<path fill="#3F0071" transform="scale(0.666667 0.666667)" d="M183.328 369.663C183.62 367.943 183.402 365.858 183.401 364.104C183.399 360.775 183.396 357.447 183.393 354.118C183.38 337.406 183.364 320.693 183.356 303.981C183.352 295.951 182.67 287.319 183.533 279.379C183.839 276.564 184.885 273.517 186.411 271.125C188.581 267.722 192.141 265.392 195.583 263.427C202.891 259.253 210.838 255.946 218.379 252.187C238.359 242.227 258.469 232.596 278.528 222.809C304.658 210.059 330.704 197.305 357.165 185.248C362.281 182.917 367.394 180.58 372.501 178.232C376.751 176.277 380.812 174.267 385.392 173.203C393.124 175.148 400.667 180.141 407.853 183.605C422.37 190.602 436.95 197.44 451.44 204.507C461.981 209.647 472.78 214.277 483.346 219.369C497.652 226.262 511.749 233.582 526.042 240.495C540.125 247.308 554.36 253.93 568.165 261.297C572.009 263.348 576.114 265.345 579.188 268.506C581.187 270.562 582.669 272.983 583.428 275.756C584.943 281.289 584.481 287.47 584.507 293.165C584.542 300.656 584.561 308.147 584.576 315.637C586.782 315.465 588.727 315.592 590.833 316.312L591.375 315.941L594.048 316.381C594.574 316.448 594.866 316.607 595.312 316.875L596.061 316.821C596.733 316.869 597.91 317.441 598.628 317.626C599.311 317.803 599.766 318.175 600.375 318.443L600.973 318.596C601.698 318.792 601.829 319.008 602.437 319.34C603.306 319.814 604.349 320.307 605.259 320.699C607.055 321.471 608.763 322.889 610.314 324.076C614.624 327.375 619.473 331.476 622.519 335.981L628.235 344.545C629.608 346.501 630.356 349.588 630.075 351.927C627.779 356.268 621.405 359.423 617.579 362.489C613.158 366.032 610.579 370.426 609.957 376.122C609.733 378.17 610.385 380.468 611.651 382.092C612.78 383.541 614.964 385.249 616.845 385.421L617.378 385.435L618.184 386.438L618.75 386.158C619.354 385.912 619.532 385.813 620.107 386.102L620.155 386.455C627.995 384.754 636.016 382.402 644.004 381.582C640.867 389.348 637.907 396.93 633.542 404.111C631.889 406.832 629.921 409.914 627.626 412.114C618.448 422.642 609.123 432.883 600.217 443.664C595.701 449.131 591.03 454.564 587.248 460.577C584.165 465.478 581.798 470.227 580.516 475.875C580.431 476.249 580.232 477.4 579.95 477.535L580.278 480.188L580.688 480.308C585.709 465.857 598.116 452.938 611.533 446.071C613.176 444.561 616.363 443.439 618.48 442.638L621.331 441.4L629.03 438.946C626.794 443.414 624.622 447.955 621.879 452.141C616.392 460.514 609.694 468.047 604.178 476.416C596.452 488.138 590.35 503.861 588.077 517.672C587.421 521.654 586.129 527.644 587.031 531.625L587.16 531.913C590.777 523.617 594.496 515.409 598.877 507.482C604.374 497.534 610.288 487.667 621.351 483.338C625.677 481.645 632.274 480.695 636.712 482.44C637.26 482.656 637.3 482.907 637.603 483.375C637.373 484.349 637.403 484.85 636.375 485.292C634.288 486.189 631.061 485.943 628.758 486.447C621.422 488.051 616.107 495.845 612.558 501.938C610.951 504.697 609.901 508.327 608.042 510.809C610.457 510.846 612.738 510.245 615.1 509.82C619.885 508.959 624.815 507.838 629.686 507.878L631.025 507.938C630.628 509.102 629.475 510.096 628.622 510.977C626.21 513.468 623.643 515.811 621.222 518.297C614.643 525.052 607.211 532.021 601.566 539.542C610.218 539.578 620.842 538.558 629.046 541.515C631.021 542.227 633.226 543.22 634.748 544.685C635.282 545.199 635.76 545.959 635.73 546.719C635.624 549.331 633.804 551.458 631.919 553.138C630.476 554.425 628.552 555.473 626.609 555.695C623.23 556.08 619.628 555.906 616.226 555.92C610.727 555.942 605.229 555.962 599.73 555.981C580.283 556.051 560.816 555.946 541.374 556.419L467.191 556.556C465.218 556.3 462.856 556.525 460.842 556.515C456.571 556.495 452.299 556.475 448.028 556.45C432.935 556.363 417.843 556.268 402.75 556.202C377.617 556.093 352.483 556.111 327.349 556.114C313.932 556.116 300.075 555.415 286.721 556.425L235.442 556.318C215.612 556.06 195.766 556.193 175.934 556.161C168.981 556.15 162.027 556.137 155.074 556.116C149.998 556.101 144.041 556.722 139.205 555.059C134.911 553.582 131.581 550.881 129.568 546.783L130.781 545.462C139.053 537.15 156.35 539.174 167.103 539.318L134.107 510.09C137.656 509.972 140.961 510.395 144.471 510.842C148.373 510.543 152.298 510.925 156.188 511.082C157.182 511.123 158.176 511.274 158.891 510.562L158.253 509.502L158.071 509.097C154.703 501.726 147.613 489.797 139.688 486.89C136.58 485.751 131.981 486.524 130.385 483.375L130.453 482.625C133.371 480.804 139.147 481.29 142.331 482.071C150.827 484.154 156.96 489.557 161.316 496.966L179.435 529.93L179.701 529.988C176.649 512.091 171.757 492.272 161.833 476.852C153.802 464.373 143.249 454.012 138.756 439.5L139.125 438.974L141.688 439.651C146.243 441.385 150.464 443.235 154.663 445.716L154.245 444.188C158.304 444.833 162.986 449.35 166.123 451.89C166.449 452.154 167.865 453.511 168.188 453.568C168.46 453.617 168.688 453.33 168.937 453.211L169.045 453.551C169.456 454.481 170.55 455.375 171.276 456.103L174.186 453.109C174.003 452.283 174.204 452.702 173.578 452.051C172.444 450.871 173.568 452.121 172.808 450.938L172.387 450.44C171.804 449.738 171.687 449.065 171.479 448.193C167.991 443.545 163.863 439.291 159.938 435.014C151.912 426.268 143.861 417.629 137.656 407.452C132.59 399.356 128.927 390.444 125.455 381.579C133.862 382.514 142.723 385.728 150.747 388.343C157.526 390.753 164.157 393.462 170.433 397.008C172.865 398.382 175.27 399.826 177.569 401.413C179.344 402.639 181.644 404.751 183.686 405.339L183.328 369.663Z"/>
	<path fill="#FFA3A9" transform="scale(0.666667 0.666667)" d="M238.216 278.481C238.59 277.232 238.987 275.791 240.084 274.964C240.868 274.373 242.038 274.136 243 274.442C243.99 274.758 244.064 275.153 244.531 276.015L244.014 277.362C243.069 277.567 243.874 277.428 242.862 277.495C240.964 277.621 239.661 277.16 238.216 278.481Z"/>
	<path fill="#0E0145" transform="scale(0.666667 0.666667)" d="M250.778 451.377C254.054 452.623 258.242 454.438 259.897 457.742C260.452 458.85 260.716 460.898 260.179 462.057C258.984 464.63 255.525 467.09 253.312 468.845L253.127 468.469C253.758 467.813 254.262 467.399 255 466.875C255.691 466.384 256.218 465.827 256.785 465.205L258.097 463.979C258.662 463.44 258.105 463.944 258.656 463.031L259.072 462.533C259.975 461.43 259.986 460.681 259.856 459.285C259.702 457.64 258.43 456.695 257.344 455.623L256.688 454.875L256.219 454.873L255.375 454.125C255.373 454.594 255.465 454.984 255.562 455.441L255.867 455.662C256.888 456.422 257.5 456.988 258.188 458.066L258.559 458.625L258.934 460.688C258.206 461.863 257.71 462.448 256.498 463.123L255.656 463.873C255.183 464.247 254.664 464.554 254.127 464.822C253.714 465.029 253.494 465.342 253.125 465.559L252.656 465.748L251.719 466.686C251.322 467.047 251.249 467.048 250.828 467.329C250.239 467.723 250.47 467.547 249.938 468.184L249.559 468.188L248.485 469.097L248.156 468.426C248.788 467.368 251.607 465.632 252.67 464.809C254.295 463.782 256.01 462.706 257.241 461.216C257.526 460.949 257.768 460.458 257.981 460.125C257.396 457.489 255.218 456.179 253.144 454.713L252.601 453.532C251.6 452.954 251.294 452.358 250.778 451.377Z"/>
	<path fill="#FFC745" transform="scale(0.666667 0.666667)" d="M269.896 521.166C271.022 519.122 272.049 516.736 273.938 515.295C275.333 514.973 276.294 514.824 277.57 515.714C279.037 516.737 281.144 519.325 281.586 521.079L281.603 521.471C278.535 521.788 272.66 522.371 269.896 521.166Z"/>
	<path fill="#FFD42A" transform="scale(0.666667 0.666667)" d="M490.901 521.174C493.221 517.957 494.972 515.663 498.631 513.944C501.413 516.403 502.537 518.192 503.878 521.658C501.176 522.045 493.056 522.675 490.901 521.174Z"/>
	<path fill="#FB2576" transform="scale(0.666667 0.666667)" d="M237.507 297.601C239.294 296.6 242.434 297.101 244.448 297.235L244.788 297.502C244.754 300.382 244.762 303.273 244.629 306.149C244.608 306.622 244.673 308.051 244.494 308.438C244.344 308.761 243.985 308.938 243.73 309.188C242.196 309.432 241.023 309.551 239.503 309.188C239.013 308.669 238.615 308.239 238.295 307.598C238.02 304.865 238.772 299.806 237.507 297.601Z"/>
	<path fill="#B6025D" transform="scale(0.666667 0.666667)" d="M577.206 511.01C577.301 514.696 577.744 535.555 576.75 537.046C575.558 537.052 573.922 537.334 572.982 536.625L571.058 512.017C571.535 512.88 572.039 513.832 572.152 514.824C572.223 515.447 572.174 515.919 572.511 516.482C572.951 517.218 572.803 518.937 572.835 519.858C573.779 519.872 574.74 519.841 575.65 520.128L576.171 520.303L576.191 513.75C576.818 512.934 576.947 511.992 577.206 511.01Z"/>
	<path fill="#B6025D" transform="scale(0.666667 0.666667)" d="M189.016 502.041C189.054 506.474 189.017 510.865 189.463 515.259C189.654 517.138 189.328 518.848 189.938 520.691C191.251 520.801 191.773 521.421 192.941 521.438C192.941 519.966 192.838 518.845 193.316 517.5C193.48 517.039 193.407 516.31 193.388 515.812L194.321 514.443L193.867 536.037L188.657 535.549L188.51 504.372L188.478 504.012L189.016 502.041Z"/>
	<path fill="#960482" transform="scale(0.666667 0.666667)" d="M611.533 446.071C613.176 444.561 616.363 443.439 618.48 442.638C618.041 443.568 617.924 444.203 617.043 444.778C612.623 447.664 608.652 451.57 605.003 455.37C599.404 461.2 594.002 467.414 590.448 474.763C589.734 475.546 588.918 476.322 588.42 477.263C588.023 478.012 587.527 478.681 587.147 479.439L585.752 482.252C585.304 483.35 584.785 484.376 584.25 485.438C583.857 483.099 586.1 479.574 587.055 477.38C587.621 476.081 587.856 474.568 588.147 473.185C591.658 465.667 597.282 458.614 603.443 453.077C605.259 451.445 610.992 448.015 611.533 446.071Z"/>
	<path fill="#2B2D42" transform="scale(0.666667 0.666667)" d="M538.198 291.342L538.515 291.059C538.963 291.938 539.023 291.867 538.967 292.875C538.901 294.045 539.348 295.254 538.684 296.25L538.684 297.562C537.246 299 537.33 299.059 535.312 299.059L534.75 298.684C533.677 298.687 533.365 298.557 532.557 299.365C530.814 301.108 532.994 306.253 531.559 307.688C531.559 308.759 531.752 309.579 531.184 310.5L530.951 310.922C530.258 312.086 529.632 312.767 528.375 313.309L527.895 313.531C527.394 313.731 527.025 313.715 526.5 313.688L526.125 314.059C525.209 314.059 523.965 314.336 523.312 313.684C522.305 313.484 521.767 313.149 521.25 312.188C521.001 311.724 521.024 311.176 520.875 310.688L520.594 310.031C520.179 308.981 520.239 307.055 519.566 306.375C519.564 305.614 519.749 305.439 519.191 304.875L519.188 299.059C518.476 298.585 518.483 298.684 517.684 298.688L517.125 299.059C516.232 299.059 516.018 299.196 515.25 298.684L513.938 299.059L513.375 298.684C512.286 298.685 510.899 298.461 510 299.059C509.049 299.059 509.069 299.137 508.312 298.684L507.752 298.498L507.388 298.216C506.966 297.9 506.759 297.837 506.252 297.748C505.681 297.087 505.404 297.09 505.467 296.181C509.897 298.423 515.311 297.506 520.15 297.368C520.2 300.133 519.767 305.053 520.784 307.51C521.037 308.122 521.128 308.225 521.75 308.427C523.101 308.867 525.418 308.751 526.639 308.062C527.466 305.039 526.904 300.657 526.901 297.472L535.042 297.662C536.131 297.634 536.52 297.791 537.287 296.902C538.525 295.468 538.26 293.11 538.198 291.342Z"/>
	<path fill="#FFC745" transform="scale(0.666667 0.666667)" d="M382.803 238.312C383.146 238.214 383.235 238.167 383.641 238.175C387.873 238.259 394.133 245.267 396.767 248.191L384.201 248.225L370.369 248.039C373.221 244.071 378.3 240.207 382.803 238.312Z"/>
	<path fill="#FFC745" transform="scale(0.666667 0.666667)" d="M208.269 436.037C210.67 431.793 215.263 427.793 219.273 425.076C225.668 420.743 232.093 418.643 239.797 420.047L241.123 421.125C240.795 422.397 239.034 423.43 237.921 424.121C229.361 424.352 220.467 431.926 214.835 437.903L211.184 442.407L210.767 441.565L211.594 440.719C212.213 439.744 212.713 439.193 213.562 438.375C213.974 436.95 216.21 435.324 217.312 434.25C217.317 433.569 217.264 433.82 217.46 433.194L217.604 432.77C217.101 431.464 218.079 428.654 218.191 427.138C214.583 429.537 211.543 432.805 208.986 436.28L208.269 436.037Z"/>
	<path fill="#FB2576" transform="scale(0.666667 0.666667)" d="M566.982 505.081C569.48 515.398 570.345 525.488 569.986 536.062L569.438 536.659C568.681 536.639 566.546 536.804 566.103 536.269C565.205 535.186 564.896 532.981 564.56 531.626C563.715 528.22 562.942 524.786 561.938 521.422C560.521 516.682 558.619 512.501 556.638 507.995C558.658 508.924 559.775 512.746 560.626 514.732C561.743 514.127 564.261 512.892 565.5 512.833C566.518 512.785 566.471 513.337 567.562 512.816L567.566 511.688C567.486 511.122 567.28 510.706 567.251 510.085L567.191 509.25C566.75 507.732 566.626 507.015 566.912 505.444L566.982 505.081Z"/>
	<path fill="#FF86BE" transform="scale(0.666667 0.666667)" d="M297.21 243.478C303.184 243.079 310.572 242.709 315.956 245.676C317.234 246.38 319.12 247.379 319.53 248.812C317.42 250.472 313.666 249.931 311.082 249.976C307.697 249.972 289.415 250.615 287.76 249.188C287.858 248.716 287.938 248.256 288.188 247.834C289.926 244.905 294.128 244.016 297.21 243.478Z"/>
	<path fill="#E632F5" transform="scale(0.666667 0.666667)" d="M154.663 445.716L154.245 444.188C158.304 444.833 162.986 449.35 166.123 451.89C166.449 452.154 167.865 453.511 168.188 453.568C168.46 453.617 168.688 453.33 168.937 453.211L169.045 453.551C169.456 454.481 170.55 455.375 171.276 456.103L174.186 453.109C174.003 452.283 174.204 452.702 173.578 452.051C172.444 450.871 173.568 452.121 172.808 450.938L172.387 450.44C171.804 449.738 171.687 449.065 171.479 448.193C177.156 454.257 183.903 463.897 185.795 472.115C186.363 474.582 186.301 477.038 186.266 479.549C185.524 478.284 184.267 475.382 183.257 474.465C176.657 462.072 165.695 453.814 154.663 445.716Z"/>
	<path fill="#FFC745" transform="scale(0.666667 0.666667)" d="M464.458 242.021C467.938 241.545 474.382 241.723 477.541 243.529C479.823 244.834 481.071 246.688 481.731 249.188C481.529 249.363 481.378 249.627 481.125 249.714C480.468 249.94 478.878 249.704 478.081 249.7C475.072 249.686 472.064 249.672 469.055 249.659C466.048 249.649 452.441 250.114 450.898 248.917C451.157 248.224 451.395 247.653 451.864 247.072C454.957 243.247 459.891 242.552 464.458 242.021Z"/>
	<path fill="#FE343A" transform="scale(0.666667 0.666667)" d="M539.475 515.149L539.751 514.77C539.514 514.061 539.298 513.858 538.686 513.435C537.776 512.805 537.167 512.217 536.436 511.406C537.466 511.423 537.487 511.203 538.29 510.625C540.504 510.701 542.482 511.144 544.646 511.495C545.864 511.692 546.867 511.602 548.062 512.059L548.062 512.25C545.947 512.287 544.057 511.887 541.969 511.969L542.463 512.396C543.167 512.845 543.116 512.818 543.562 513.559C545.57 513.807 548.815 514.034 550.726 513.371C551.85 512.981 551.897 512.579 552.341 511.578C554.716 516.705 556.848 521.852 558.392 527.296C559.267 530.382 559.783 533.621 560.762 536.658L555.159 536.155C552.056 531.42 549.084 526.513 545.6 522.047C543.7 519.612 541.344 517.579 539.475 515.149Z"/>
	<path fill="#FF9E82" transform="scale(0.666667 0.666667)" d="M208.269 436.037L208.986 436.28C211.543 432.805 214.583 429.537 218.191 427.138C218.079 428.654 217.101 431.464 217.604 432.77L217.46 433.194C217.264 433.82 217.317 433.569 217.312 434.25C216.21 435.324 213.974 436.95 213.562 438.375C212.713 439.193 212.213 439.744 211.594 440.719L210.767 441.565L211.184 442.407C206.795 448.935 202.761 455.627 199.658 462.872C197.944 466.876 196.722 471.019 195.403 475.159C195.07 476.205 194.485 476.833 194.25 477.938L193.793 479.979C193.636 480.923 193.335 482.094 193.033 483L192.75 483.562C192.024 482.849 192.153 482.624 192.165 481.604C192.174 480.806 192.381 480.396 192.854 479.793L192.575 478.551L192.911 478.253C193.995 477.166 193.972 475.349 193.906 473.908C193.846 472.604 193.731 471.374 193.438 470.099C195.595 460.138 198.29 451.465 203.658 442.689C205.044 440.423 206.425 437.96 208.269 436.037Z"/>
	<path fill="#FFC745" transform="scale(0.666667 0.666667)" d="M510.638 461.093L509.782 459.973C509.42 459.325 509.191 458.772 509.419 458.045C509.961 456.318 511.855 455.072 513.392 454.312C518.528 451.775 525.6 451.998 530.93 453.842C539.979 455.54 548.655 464.483 553.615 471.692C554.465 472.927 557.888 477.4 557.854 478.826L558.106 480.281C558.143 480.515 558.177 480.897 558.273 481.125C558.62 481.949 558.875 482.243 558.941 483.188L557.812 483.191C557.083 482.108 556.041 481.463 555.235 480.467C549.618 473.525 544.007 466.699 536.438 461.733C534.257 460.303 531.905 459.281 529.562 458.156C525.725 457.027 521.387 456.056 517.473 457.406L517.028 457.556C514.737 458.363 512.637 459.735 510.638 461.093Z"/>
	<path fill="#FFD42A" transform="scale(0.666667 0.666667)" d="M510.638 461.093L509.782 459.973C509.42 459.325 509.191 458.772 509.419 458.045C509.961 456.318 511.855 455.072 513.392 454.312C518.528 451.775 525.6 451.998 530.93 453.842L530.596 453.883C529.742 453.979 529.206 454.036 528.383 453.742C526.931 453.223 525.457 453.612 524.104 453.137C522.649 452.625 520.384 453.353 518.829 453.415C517.238 453.479 515.904 453.836 514.563 454.688C513.812 455.164 513.022 455.517 512.302 456.052L512.25 458.812C512.981 458.812 513.157 458.454 513.75 458.158C514.278 457.895 514.694 457.808 515.25 457.5L516.188 457.125C516.556 456.974 516.896 456.762 517.259 456.597C518.084 456.222 518.944 456.338 519.825 456.313C520.962 456.281 519.838 456.343 521.062 456C521.229 455.953 521.684 456.014 521.843 456.028L522.241 456.061C522.611 456.106 522.948 456.3 523.312 456.375C524.621 456.643 525.752 456.147 527.062 456.75C528.045 457.202 529.204 457.323 530.248 457.622L529.77 457.901L529.562 458.156C525.725 457.027 521.387 456.056 517.473 457.406L517.028 457.556C514.737 458.363 512.637 459.735 510.638 461.093Z"/>
	<path fill="#FFC745" transform="scale(0.666667 0.666667)" d="M225.098 457.863L225.112 457.19C225.303 455.996 226.87 454.042 227.864 453.448C228.297 453.189 228.603 453.001 228.984 452.653C230.039 451.687 230.638 451.139 232.055 450.734L232.688 450.559C233.273 450.34 233.56 450.149 234.208 450.055C236.613 449.706 238.519 449.318 240.994 449.57C244.457 449.831 247.431 450.497 250.778 451.377C251.294 452.358 251.6 452.954 252.601 453.532L253.144 454.713C255.218 456.179 257.396 457.489 257.981 460.125C257.768 460.458 257.526 460.949 257.241 461.216C255.018 460.367 252.947 459.14 250.7 458.396C248.36 457.622 246.042 457.354 243.617 457.063C237.859 456.373 232.062 459.785 227.731 463.293L221.438 468.867L221.252 468.469L221.674 468.053C222.451 467.276 222.943 467.059 222.938 465.934L221.94 465.526L221.646 464.642C220.979 464.461 220.779 464.353 220.125 464.694L218.94 465.583L218.419 465.263C220.409 462.563 222.682 460.183 225.098 457.863Z"/>
	<path fill="#0E0037" transform="scale(0.666667 0.666667)" d="M240.994 449.57C244.457 449.831 247.431 450.497 250.778 451.377C251.294 452.358 251.6 452.954 252.601 453.532L253.144 454.713C247.54 452.908 243.588 452.079 237.633 452.41L236.634 452.062C238.147 451.065 238.597 450.717 240.375 450.566C241.152 450.048 241.528 450.153 242.439 450.094L240.242 449.897L240.994 449.57Z"/>
	<path fill="#0E0145" transform="scale(0.666667 0.666667)" d="M225.098 457.863L225.112 457.19C225.303 455.996 226.87 454.042 227.864 453.448C228.297 453.189 228.603 453.001 228.984 452.653C230.039 451.687 230.638 451.139 232.055 450.734L232.688 450.559C233.273 450.34 233.56 450.149 234.208 450.055C236.613 449.706 238.519 449.318 240.994 449.57L240.242 449.897L242.439 450.094C241.528 450.153 241.152 450.048 240.375 450.566C238.597 450.717 238.147 451.065 236.634 452.062L237.633 452.41C232.746 453.505 229.249 455.077 225.098 457.863Z"/>
	<path fill="#FFD42A" transform="scale(0.666667 0.666667)" d="M500.959 501.049L499.707 500.825L499.479 500.062C500.071 498.804 501.089 497.64 502.194 496.799C509.693 491.09 523.511 489.417 532.688 490.484L534.567 490.737C540.168 491.787 543.027 495.697 545.978 500.155L545.25 500.943C542.036 500.539 538.864 499.138 535.634 498.541C524.574 496.499 512.446 497.066 501.872 500.846L500.959 501.049Z"/>
	<path fill="#FF8184" transform="scale(0.666667 0.666667)" d="M244.531 276.015L244.714 276.566C245.08 277.762 244.916 279.249 244.915 280.49C244.914 283.297 244.895 286.104 244.872 288.91C248.292 289.871 251.644 287.801 255.424 289.242C256.267 290.824 256.943 291.924 256.287 293.779C255.793 295.176 254.429 297.105 252.943 297.565C251.683 297.954 250.024 297.842 248.71 297.855L244.788 297.502L244.448 297.235C242.434 297.101 239.294 296.6 237.507 297.601C235.2 297.955 230.129 298.291 227.997 297.474C226.798 297.013 226.524 296.079 226.017 295.024C226.008 293.865 226.005 291.797 226.872 290.933C229.402 288.414 234.363 289.435 237.773 289.461C237.564 288.862 237.722 287.763 237.727 287.11C237.751 284.206 237.921 281.373 238.216 278.481C239.661 277.16 240.964 277.621 242.862 277.495C243.874 277.428 243.069 277.567 244.014 277.362L244.531 276.015Z"/>
	<path fill="#FF9E82" transform="scale(0.666667 0.666667)" d="M226.017 295.024C226.008 293.865 226.005 291.797 226.872 290.933C229.402 288.414 234.363 289.435 237.773 289.461C238.298 290.882 238.237 292.32 238.261 293.812C236.693 295.287 232.347 295.134 230.17 295.319C229.529 295.373 229.757 295.339 229.125 295.691C228.048 295.536 227.066 295.317 226.017 295.024Z"/>
	<path fill="#2B2D42" transform="scale(0.666667 0.666667)" d="M575.964 332.657L575.85 332.294C575.006 329.326 575.338 325.559 575.533 322.5C575.605 321.379 575.455 320.26 575.533 319.125C575.602 318.127 575.454 317.14 575.533 316.125C575.71 313.864 575.436 311.329 575.435 309.027C575.431 303.587 575.433 298.148 575.435 292.708C575.435 291.484 575.832 287.336 575.438 286.5C575.362 286.341 575.19 286.25 575.066 286.125C575.2 283.662 574.867 281.157 575.357 278.754C575.504 278.033 575.454 277.291 575.438 276.559C574.757 275.848 574.613 275.65 573.752 275.248C573.299 275.037 572.835 274.515 572.462 274.204C571.794 273.648 571.492 273.686 570.752 273.373L569.25 272.434L568.127 271.873L567.54 271.567C566.884 271.239 567.19 271.362 566.602 271.216C566.08 271.086 565.94 270.834 565.5 270.559L564.377 269.998L555.927 265.755C555.401 265.492 555.01 265.394 554.438 265.309C553.975 264.846 553.912 264.629 553.267 264.501C552.6 264.369 552.532 264.152 552 263.809C550.276 262.696 547.86 261.938 546.002 260.998L545.638 260.716C545.154 260.353 544.987 260.464 544.502 260.248L543.422 259.579C542.486 258.953 543.599 259.671 542.344 259.123L541.928 258.841C541.214 258.364 540.045 257.836 539.25 257.434L538.911 257.353C537.542 257.013 536.333 256.031 534.957 255.572C534.079 255.28 533.485 254.832 532.688 254.434L532.127 254.248L531.469 253.873L531.065 253.697C530.358 253.382 529.796 252.898 529.125 252.559L528.786 252.478C527.946 252.269 527.429 251.804 526.688 251.434L526.127 251.248L525.469 250.873C524.968 250.612 524.472 250.393 523.969 250.123C523.507 249.876 523.052 249.737 522.559 249.572C521.925 249.361 521.778 249.147 521.25 248.809C520.124 248.087 518.543 247.548 517.312 246.934L516.225 246.584C515.602 246.377 515.082 246.106 514.5 245.809L510.564 243.829C509.781 243.438 510.236 243.653 509.426 243.383C508.61 243.111 507.842 242.585 507.002 242.248L506.344 241.873C505.882 241.626 505.427 241.487 504.934 241.322C504.31 241.114 504.15 240.826 503.625 240.559L502.877 240.373L501.375 239.434C500.905 239.157 500.397 239.019 499.887 238.848C499.172 238.608 498.809 238.24 498.188 237.842C497.604 237.468 496.917 237.26 496.29 236.982C495.645 236.697 495.388 236 494.812 235.684C494.466 235.493 494.044 235.479 493.688 235.309L493.125 234.932C492.598 234.615 492.039 234.39 491.463 234.183C486.898 232.548 482.574 229.76 478.125 227.797C473.192 225.621 468.356 223.205 463.502 220.862C460.731 219.524 457.674 218.464 455.062 216.863L453.941 216.188L454.5 215.816C467.122 221.422 479.457 227.554 491.998 233.311C498.075 236.1 504.295 238.611 510.347 241.449C514.556 243.423 518.634 245.657 522.854 247.62C533.527 252.584 544.032 257.797 554.623 262.914C562.306 266.625 570.635 270.26 577.545 275.312C577.651 291.33 577.959 307.268 577.633 323.274C577.526 328.544 577.801 334.02 577.245 339.253L577.17 339.276C577.263 342.068 577.162 344.847 577.068 347.638C577.04 348.469 577.178 349.752 576.75 350.438L576.75 341.625L576.469 341.436L576.524 348.668L576.467 349.125C576.405 349.786 576.384 350.22 576.188 350.865L575.964 332.657Z"/>
	<path fill="#FF6331" transform="scale(0.666667 0.666667)" d="M500.959 501.049L501.872 500.846C512.446 497.066 524.574 496.499 535.634 498.541C538.864 499.138 542.036 500.539 545.25 500.943L545.978 500.155C548.6 503.533 550.542 507.713 552.341 511.578C551.897 512.579 551.85 512.981 550.726 513.371C548.815 514.034 545.57 513.807 543.562 513.559C543.116 512.818 543.167 512.845 542.463 512.396L541.969 511.969C544.057 511.887 545.947 512.287 548.062 512.25L548.062 512.059C546.867 511.602 545.864 511.692 544.646 511.495C542.482 511.144 540.504 510.701 538.29 510.625C537.487 511.203 537.466 511.423 536.436 511.406C537.167 512.217 537.776 512.805 538.686 513.435C539.298 513.858 539.514 514.061 539.751 514.77L539.475 515.149C531.734 508.767 522.483 503.093 512.296 501.882C508.876 501.475 504.806 502.068 501.533 501.209L500.959 501.049Z"/>
	<path fill="#FB2576" transform="scale(0.666667 0.666667)" d="M219.668 505.983C220.104 507.348 220.099 507.831 221.25 508.737C222.642 507.781 223.221 507.065 223.988 505.602C224.368 504.877 224.865 504.257 225.375 503.621L225.94 503.502C226.34 504.51 226.62 505.078 227.626 505.599C229.241 506.438 232.779 507.524 234.571 507.732C235.835 507.879 236.714 508.262 237.853 508.81C238.484 509.113 238.239 509.005 239.064 509.156C238.165 509.903 238.857 509.388 238.045 509.877C237.212 510.379 237.099 511.002 236.156 511.406L236.217 511.68L236.96 511.683C229.028 519.297 223.106 527.394 216.892 536.376L209.843 536.493C211.911 525.564 214.459 515.866 219.668 505.983Z"/>
	<defs>
		<linearGradient id="gradient_0" gradientUnits="userSpaceOnUse" x1="521.81201" y1="308.43799" x2="529.53601" y2="273.86801">
			<stop offset="0" stop-color="#FFBC16"/>
			<stop offset="1" stop-color="#FFE045"/>
		</linearGradient>
	</defs>
	<path fill="url(#gradient_0)" transform="scale(0.666667 0.666667)" d="M505.467 296.181C505.023 295.358 504.753 294.509 504.464 293.625C504.635 292.529 504.716 291.883 505.589 291.094C508.391 288.565 516.14 289.675 519.846 289.771C519.833 285.428 519.463 280.363 520.167 276.092C520.441 274.427 520.997 273.597 522.375 272.658C523.825 272.465 524.276 272.531 525.562 273.228C526.834 274.857 526.757 277.186 526.824 279.171C526.943 282.717 527.017 286.266 527.09 289.813C529.389 289.815 531.702 289.776 534 289.854C534.612 289.874 535.9 289.825 536.415 290.062C537 290.333 537.657 290.95 538.198 291.342C538.26 293.11 538.525 295.468 537.287 296.902C536.52 297.791 536.131 297.634 535.042 297.662L526.901 297.472C526.904 300.657 527.466 305.039 526.639 308.062C525.418 308.751 523.101 308.867 521.75 308.427C521.128 308.225 521.037 308.122 520.784 307.51C519.767 305.053 520.2 300.133 520.15 297.368C515.311 297.506 509.897 298.423 505.467 296.181Z"/>
	<path fill="#FFC745" transform="scale(0.666667 0.666667)" d="M267.899 523.321C268.479 522.517 268.979 521.612 269.896 521.166C272.66 522.371 278.535 521.788 281.603 521.471C282.124 522.139 282.278 522.047 282.191 522.938C282.506 523.526 282.832 523.595 283.394 523.928C284.484 525.82 284.907 528.014 285.596 530.074C286.767 533.573 288.072 537.029 289.361 540.486L290.019 542.25C288.863 543.195 269.067 542.688 266.165 542.697L257.91 542.656C259.745 535.73 263.112 528.684 267.899 523.321Z"/>
	<path fill="#2B2D42" transform="scale(0.666667 0.666667)" d="M267.899 523.321C268.479 522.517 268.979 521.612 269.896 521.166C272.66 522.371 278.535 521.788 281.603 521.471C282.124 522.139 282.278 522.047 282.191 522.938C282.506 523.526 282.832 523.595 283.394 523.928C278.553 524.408 272.709 524.155 267.899 523.321Z"/>
	<path fill="#FF6331" transform="scale(0.666667 0.666667)" d="M266.165 542.697C267.037 540.158 270.717 533.819 272.812 532.097C273.857 531.239 275.072 531.151 276.375 531.348C279.117 531.763 282.742 536.79 284.438 538.947L285.565 540.346C286.396 541.195 287.791 541.494 288.938 541.502L289.361 540.486L290.019 542.25C288.863 543.195 269.067 542.688 266.165 542.697Z"/>
	<path fill="#FFD42A" transform="scale(0.666667 0.666667)" d="M489.127 523.781C489.668 522.835 490.186 521.999 490.901 521.174C493.056 522.675 501.176 522.045 503.878 521.658L504.905 524.271C507.204 527.724 513.32 539.191 512.686 543.023C512.624 543.399 512.614 543.413 512.259 543.569C511.317 543.984 509.099 543.998 508.147 543.635C505.296 543.23 502.139 543.445 499.25 543.459C494.148 543.483 489.045 543.52 483.942 543.557L478.453 543.753C481.884 536.886 484.548 530.043 489.127 523.781Z"/>
	<path fill="#2B2D42" transform="scale(0.666667 0.666667)" d="M489.127 523.781C489.668 522.835 490.186 521.999 490.901 521.174C493.056 522.675 501.176 522.045 503.878 521.658L504.905 524.271L489.127 523.781Z"/>
	<path fill="#FF6331" transform="scale(0.666667 0.666667)" d="M483.942 543.557C485.449 540.799 487.602 538.279 489.405 535.694C490.481 534.151 491.681 532.967 493.056 531.707C494.98 531.981 496.946 532.157 498.726 532.974L499.237 533.203C503.057 535.038 506.565 539.816 508.147 543.635C505.296 543.23 502.139 543.445 499.25 543.459C494.148 543.483 489.045 543.52 483.942 543.557Z"/>
	<path fill="#FFC745" transform="scale(0.666667 0.666667)" d="M223.111 500.344C226.274 495.891 229.565 491.422 235.319 490.354C239.764 489.53 244.749 490.053 249.188 490.74C254.354 491.541 263.405 493.644 266.82 497.812C267.474 498.61 267.867 499.528 267.948 500.554L267.338 501.043L266.793 501.194C264.955 501.673 262.715 501.504 260.812 501.613C256.062 501.884 251.161 503.175 246.89 505.277C244.285 506.559 241.859 508.182 239.499 509.861C239.117 510.132 237.19 511.684 236.96 511.683L236.217 511.68L236.156 511.406C237.099 511.002 237.212 510.379 238.045 509.877C238.857 509.388 238.165 509.903 239.064 509.156C238.239 509.005 238.484 509.113 237.853 508.81C236.714 508.262 235.835 507.879 234.571 507.732C232.779 507.524 229.241 506.438 227.626 505.599C226.62 505.078 226.34 504.51 225.94 503.502L225.375 503.621C224.865 504.257 224.368 504.877 223.988 505.602C223.221 507.065 222.642 507.781 221.25 508.737C220.099 507.831 220.104 507.348 219.668 505.983L223.111 500.344Z"/>
	<path fill="#FF6331" transform="scale(0.666667 0.666667)" d="M223.111 500.344L223.688 503.184L224.25 503.263C225.853 501.857 227.465 500.368 229.413 499.454C235.15 496.762 244.343 497.48 250.579 497.913C253.004 498.081 255.416 498.406 257.822 498.747C258.448 498.836 259.672 498.85 260.181 499.092C260.968 499.466 261.65 500.552 262.44 500.894C263.343 501.284 266.218 501.009 267.338 501.043L266.793 501.194C264.955 501.673 262.715 501.504 260.812 501.613C256.062 501.884 251.161 503.175 246.89 505.277C244.285 506.559 241.859 508.182 239.499 509.861C239.117 510.132 237.19 511.684 236.96 511.683L236.217 511.68L236.156 511.406C237.099 511.002 237.212 510.379 238.045 509.877C238.857 509.388 238.165 509.903 239.064 509.156C238.239 509.005 238.484 509.113 237.853 508.81C236.714 508.262 235.835 507.879 234.571 507.732C232.779 507.524 229.241 506.438 227.626 505.599C226.62 505.078 226.34 504.51 225.94 503.502L225.375 503.621C224.865 504.257 224.368 504.877 223.988 505.602C223.221 507.065 222.642 507.781 221.25 508.737C220.099 507.831 220.104 507.348 219.668 505.983L223.111 500.344Z"/>
	<path fill="#FF86BE" transform="scale(0.666667 0.666667)" d="M282.592 316.149C282.78 314.833 283.165 313.171 284.137 312.205C285.313 311.036 286.463 310.813 288.064 310.679C292.927 310.272 297.997 310.535 302.883 310.517C312.005 310.483 321.126 310.437 330.247 310.387C356.589 310.243 382.965 309.793 409.306 310.188C407.814 310.337 404.899 310.246 403.732 311.14L405.478 311.431C405.525 312.902 405.415 313.949 405.193 315.374L405.188 316.5C404.624 316.547 403.788 316.503 403.284 316.736C401.208 317.168 398.689 316.896 396.561 316.883C392.589 316.859 388.618 316.858 384.646 316.855C366.156 316.838 347.676 316.601 329.188 316.513C319.359 316.466 309.529 316.457 299.701 316.484C294.192 316.499 288.017 317.075 282.592 316.149Z"/>
	<path fill="#FB2576" transform="scale(0.666667 0.666667)" d="M211.184 442.407L214.835 437.903C220.467 431.926 229.361 424.352 237.921 424.121C226.666 434.029 220.352 448.35 213.806 461.527C207.684 473.853 201.786 486.201 197.694 499.381C196.167 504.298 195.155 509.368 194.321 514.443L193.388 515.812C193.407 516.31 193.48 517.039 193.316 517.5C192.838 518.845 192.941 519.966 192.941 521.438C191.773 521.421 191.251 520.801 189.938 520.691C189.328 518.848 189.654 517.138 189.463 515.259C189.017 510.865 189.054 506.474 189.016 502.041C188.689 491.751 191.368 480.164 193.438 470.099C193.731 471.374 193.846 472.604 193.906 473.908C193.972 475.349 193.995 477.166 192.911 478.253L192.575 478.551L192.854 479.793C192.381 480.396 192.174 480.806 192.165 481.604C192.153 482.624 192.024 482.849 192.75 483.562L193.033 483C193.335 482.094 193.636 480.923 193.793 479.979L194.25 477.938C194.485 476.833 195.07 476.205 195.403 475.159C196.722 471.019 197.944 466.876 199.658 462.872C202.761 455.627 206.795 448.935 211.184 442.407Z"/>
	<path fill="#FF6331" transform="scale(0.666667 0.666667)" d="M510.638 461.093C512.637 459.735 514.737 458.363 517.028 457.556L517.473 457.406C521.387 456.056 525.725 457.027 529.562 458.156C531.905 459.281 534.257 460.303 536.438 461.733C544.007 466.699 549.618 473.525 555.235 480.467C556.041 481.463 557.083 482.108 557.812 483.191L558.941 483.188C558.875 482.243 558.62 481.949 558.273 481.125C558.177 480.897 558.143 480.515 558.106 480.281L557.854 478.826C559.899 481.707 561.216 485.328 562.372 488.651C564.255 494.064 565.819 499.466 566.982 505.081L566.912 505.444C566.626 507.015 566.75 507.732 567.191 509.25L567.251 510.085C567.28 510.706 567.486 511.122 567.566 511.688L567.562 512.816C566.471 513.337 566.518 512.785 565.5 512.833C564.261 512.892 561.743 514.127 560.626 514.732C559.775 512.746 558.658 508.924 556.638 507.995C555.144 506.392 553.987 503.434 552.731 501.526C549.963 497.319 546.807 493.344 543.582 489.479C537.578 482.283 530.89 475.406 523.298 469.868C519.288 466.943 514.824 464.569 511.005 461.405L510.638 461.093Z"/>
	<defs>
		<linearGradient id="gradient_1" gradientUnits="userSpaceOnUse" x1="426.56201" y1="327.18799" x2="424.68799" y2="304.56601">
			<stop offset="0" stop-color="#FF3878"/>
			<stop offset="1" stop-color="#FF49C6"/>
		</linearGradient>
	</defs>
	<path fill="url(#gradient_1)" transform="scale(0.666667 0.666667)" d="M282.592 316.149C288.017 317.075 294.192 316.499 299.701 316.484C309.529 316.457 319.359 316.466 329.188 316.513C347.676 316.601 366.156 316.838 384.646 316.855C388.618 316.858 392.589 316.859 396.561 316.883C398.689 316.896 401.208 317.168 403.284 316.736L403.642 316.85L407.167 317.458C407.119 318.993 406.873 320.803 407.155 322.301C407.365 323.414 407.044 324.754 406.814 325.856C407.204 326.186 406.949 326.065 407.604 326.049C408.955 326.017 409.42 326.048 410.625 326.547C411.982 327.109 414.102 326.924 415.558 326.965C419.406 327.073 423.409 326.931 427.237 327.264L282.547 327.782L282.592 316.149Z"/>
	<path fill="#FB2576" transform="scale(0.666667 0.666667)" d="M527.651 424.138C526.69 423.415 525.256 422.584 524.735 421.5C525.4 420.582 525.908 420.228 527.062 420.029C535.231 418.626 544.861 423.08 551.038 428.084C560.605 435.833 567.818 447.782 571.65 459.415C572.391 461.661 573.368 464.326 573.656 466.657L573.682 467.147C574.49 469.747 575.148 472.699 575.3 475.418C577.116 487.2 577.295 499.117 577.206 511.01C576.947 511.992 576.818 512.934 576.191 513.75L576.171 520.303L575.65 520.128C574.74 519.841 573.779 519.872 572.835 519.858C572.803 518.937 572.951 517.218 572.511 516.482C572.174 515.919 572.223 515.447 572.152 514.824C572.039 513.832 571.535 512.88 571.058 512.017C569.601 503.913 567.85 495.467 565.124 487.688C562.619 480.541 559.409 473.674 556.551 466.669C553.383 458.905 550.839 451.653 546.089 444.6C541.004 437.05 534.242 430.385 527.651 424.138Z"/>
	<path fill="#FF6331" transform="scale(0.666667 0.666667)" d="M573.682 467.147C574.49 469.747 575.148 472.699 575.3 475.418C575.254 476.508 575.401 477.797 574.688 478.684C573.497 479.175 572.928 479.113 571.688 478.816C570.339 477.666 569.779 473.873 569.225 472.125C568.883 471.044 568.711 470.086 568.583 468.965C569.013 469.283 569.306 469.515 569.84 469.636C570.434 469.77 570.009 469.535 570.627 470.076C570.269 470.706 570.213 470.883 570.128 471.565C570.481 472.27 570.368 472.344 571.125 472.691L571.316 472.312L570.69 471.858L570.752 471.377L571.316 471L571.687 470.441L572.812 470.441L573.094 469.877L573.562 469.691L573.191 469.125L573.682 467.147Z"/>
	<path fill="#FFC745" transform="scale(0.666667 0.666667)" d="M527.651 424.138C526.69 423.415 525.256 422.584 524.735 421.5C525.4 420.582 525.908 420.228 527.062 420.029C535.231 418.626 544.861 423.08 551.038 428.084C560.605 435.833 567.818 447.782 571.65 459.415C572.391 461.661 573.368 464.326 573.656 466.657L573.682 467.147L573.191 469.125L573.562 469.691L573.094 469.877L572.812 470.441L571.687 470.441L571.316 471L570.752 471.377L570.69 471.858L571.316 472.312L571.125 472.691C570.368 472.344 570.481 472.27 570.128 471.565C570.213 470.883 570.269 470.706 570.627 470.076C570.009 469.535 570.434 469.77 569.84 469.636C569.306 469.515 569.013 469.283 568.583 468.965C567.683 464.837 565.894 460.747 564.073 456.952C558.91 446.189 551.183 435.302 541.125 428.605C537.487 426.182 532.144 423.253 527.651 424.138Z"/>
	<path fill="#FF981B" transform="scale(0.666667 0.666667)" d="M409.306 310.188C426.02 310.202 442.734 310.221 459.449 310.249C467.767 310.263 476.601 309.669 484.859 310.498C485.785 310.591 486.483 310.837 487.312 311.257C489.11 313.22 489.495 314.896 489.951 317.431L491.29 327.789L443.466 327.296L427.237 327.264C423.409 326.931 419.406 327.073 415.558 326.965C414.102 326.924 411.982 327.109 410.625 326.547C409.42 326.048 408.955 326.017 407.604 326.049C406.949 326.065 407.204 326.186 406.814 325.856C407.044 324.754 407.365 323.414 407.155 322.301C406.873 320.803 407.119 318.993 407.167 317.458L403.642 316.85L403.284 316.736C403.788 316.503 404.624 316.547 405.188 316.5L405.193 315.374C405.415 313.949 405.525 312.902 405.478 311.431L403.732 311.14C404.899 310.246 407.814 310.337 409.306 310.188Z"/>
	<path fill="#FF6331" transform="scale(0.666667 0.666667)" d="M403.642 316.85L426.284 317.391C428.648 317.567 431.135 317.615 433.462 318.049C436.667 318.647 441.56 317.22 444.191 318.94C444.041 319.989 444.57 320.393 444.545 321.117C444.53 321.541 443.47 322.856 443.179 323.252L442.994 325.085L442.345 325.364C441.658 325.663 441.096 326.124 440.441 326.438C439.622 326.83 438.336 326.637 437.438 326.625C439.335 327.305 441.549 326.58 443.466 327.296L427.237 327.264C423.409 326.931 419.406 327.073 415.558 326.965C414.102 326.924 411.982 327.109 410.625 326.547C409.42 326.048 408.955 326.017 407.604 326.049C406.949 326.065 407.204 326.186 406.814 325.856C407.044 324.754 407.365 323.414 407.155 322.301C406.873 320.803 407.119 318.993 407.167 317.458L403.642 316.85Z"/>
	<path fill="#FFC745" transform="scale(0.666667 0.666667)" d="M409.306 310.188C426.02 310.202 442.734 310.221 459.449 310.249C467.767 310.263 476.601 309.669 484.859 310.498C485.785 310.591 486.483 310.837 487.312 311.257C489.11 313.22 489.495 314.896 489.951 317.431L426.284 317.391L403.642 316.85L403.284 316.736C403.788 316.503 404.624 316.547 405.188 316.5L405.193 315.374C405.415 313.949 405.525 312.902 405.478 311.431L403.732 311.14C404.899 310.246 407.814 310.337 409.306 310.188Z"/>
	<path fill="#16A6FF" transform="scale(0.666667 0.666667)" d="M407.887 332.745L438.426 332.687C437.686 342.671 435.234 351.895 430.423 360.731C428.649 363.99 426.473 367.508 423.655 369.971C418.273 374.675 408.47 376.829 401.448 376.257C395.532 375.775 391.886 373.314 387.488 369.782C396.521 359.934 403.922 345.495 407.887 332.745Z"/>
	<path fill="#FB2576" transform="scale(0.666667 0.666667)" d="M320.876 332.579L353.955 332.78C349.041 348.796 344.227 364.454 328.449 372.827C319.935 377.346 310.081 378.582 300.815 375.703C299.352 375.249 297.874 374.664 296.527 373.936C296.836 372.711 298.498 371.59 299.401 370.735C301.066 369.157 302.676 367.501 303.951 365.586C309.648 358.432 312.634 349.097 315.456 340.528C316.265 338.07 316.812 334.968 318.042 332.721L320.876 332.579Z"/>
	<path fill="#FB2576" transform="scale(0.666667 0.666667)" d="M218.419 465.263L218.94 465.583L220.125 464.694C220.779 464.353 220.979 464.461 221.646 464.642L221.94 465.526L222.938 465.934C222.943 467.059 222.451 467.276 221.674 468.053L221.252 468.469L221.438 468.867L227.731 463.293C232.062 459.785 237.859 456.373 243.617 457.063C246.042 457.354 248.36 457.622 250.7 458.396C252.947 459.14 255.018 460.367 257.241 461.216C256.01 462.706 254.295 463.782 252.67 464.809C251.607 465.632 248.788 467.368 248.156 468.426C244.01 471.39 240.232 475.168 236.612 478.745C230.734 484.553 224.83 490.729 220.259 497.633C216.516 503.287 213.638 509.54 211.266 515.881L205.433 536.748C202.923 536.686 200.538 536.521 198.061 536.099C197.014 529.235 197.496 521.614 198.316 514.746C198.746 511.14 199.172 507.417 200.313 503.957C200.281 502.737 201.023 500.695 201.337 499.474C204.298 487.948 210.394 474.114 218.419 465.263Z"/>
	<path fill="#FB2576" transform="scale(0.666667 0.666667)" d="M137.656 407.452C132.59 399.356 128.927 390.444 125.455 381.579C133.862 382.514 142.723 385.728 150.747 388.343C157.526 390.753 164.157 393.462 170.433 397.008C172.865 398.382 175.27 399.826 177.569 401.413C179.344 402.639 181.644 404.751 183.686 405.339C184.472 408.226 184.41 411.42 184.468 414.4C184.553 418.79 184.552 423.17 184.923 427.547C185.881 438.865 187.74 450.034 188.884 461.334C179.27 443.46 164.378 430.82 149.723 417.189C146.358 414.06 143.461 410.424 140.001 407.438C139.143 407.284 138.516 407.322 137.656 407.452Z"/>
	<defs>
		<linearGradient id="gradient_2" gradientUnits="userSpaceOnUse" x1="581.06201" y1="458.43799" x2="634.74799" y2="376.33701">
			<stop offset="0" stop-color="#F00055"/>
			<stop offset="1" stop-color="#FF2693"/>
		</linearGradient>
	</defs>
	<path fill="url(#gradient_2)" transform="scale(0.666667 0.666667)" d="M620.155 386.455C627.995 384.754 636.016 382.402 644.004 381.582C640.867 389.348 637.907 396.93 633.542 404.111C631.889 406.832 629.921 409.914 627.626 412.114L626.969 411.763C624.792 412.498 622.237 415.27 620.452 416.822C613.646 422.742 607.374 429.1 601.085 435.561C595.378 441.425 589.59 447.402 584.478 453.796C583.085 455.539 581.936 457.5 580.76 459.393L583.767 406.224C594.626 397.685 607.262 391.29 620.155 386.455Z"/>
	<path fill="#FB2576" transform="scale(0.666667 0.666667)" d="M293.639 372.587L286.85 375.822C278.188 379.327 268.753 380.583 259.542 378.656C255.117 377.731 250.939 376.051 246.792 374.293C248.451 373.282 250.192 372.34 251.663 371.061C262.368 361.758 267.784 344.968 271.611 331.735C272.949 331.463 275.097 332.137 276.565 332.179C283.471 332.375 290.461 332.491 297.367 332.296L297.841 332.332L315.705 332.544C312.554 342.598 309.694 352.395 304.361 361.58C301.238 366.219 298.228 369.412 293.639 372.587Z"/>
	<defs>
		<linearGradient id="gradient_3" gradientUnits="userSpaceOnUse" x1="246.562" y1="373.31201" x2="231.938" y2="331.86301">
			<stop offset="0" stop-color="#7707FD"/>
			<stop offset="1" stop-color="#D927FF"/>
		</linearGradient>
	</defs>
	<path fill="url(#gradient_3)" transform="scale(0.666667 0.666667)" d="M233.845 331.057C241.407 330.598 249.102 330.815 256.681 330.795C261.084 330.783 266.771 330.125 270.938 331.353C270.771 332.957 269.32 335.493 268.795 337.22C268.588 337.899 268.7 337.549 268.376 338.322C267.971 339.288 267.767 340.263 267.348 341.238C263.658 349.832 261.093 358.555 255.427 366.183C253.463 368.826 250.827 371.543 247.752 372.841C243.815 374.503 237.971 375.622 233.942 373.933C222.862 369.288 213.551 359.856 209.217 348.692L206.98 341.827C205.837 338.407 205.343 334.904 205.084 331.322L233.845 331.057Z"/>
	<path fill="#E632F5" transform="scale(0.666667 0.666667)" d="M206.98 341.827C205.837 338.407 205.343 334.904 205.084 331.322L233.845 331.057L234.257 331.104C240.505 331.755 247.199 331.279 253.515 331.285C256.258 331.287 259.068 331.113 261.775 331.614C261.748 332.512 261.466 332.951 260.808 333.552L259.724 334.368L259.196 334.828C258.275 335.603 257.028 335.95 255.928 336.398C251.548 338.18 245.643 338.138 240.937 338.816C240.256 338.914 239.599 338.95 238.921 339.082L233.784 339.645C232.919 339.733 232.128 339.903 231.282 340.096C229.945 340.401 228.608 340.377 227.249 340.693L223.499 341.457L222.838 341.608C220.271 342.209 217.284 343.021 214.807 343.872C213.134 344.447 212.038 345.139 210.227 345.296C209.638 345.347 209.321 345.578 208.875 345.938L208.769 345.249C208.653 344.542 208.382 344.147 208.146 343.501L207.945 342.558L206.98 341.827Z"/>
	<defs>
		<linearGradient id="gradient_4" gradientUnits="userSpaceOnUse" x1="432.18799" y1="376.68799" x2="452.92499" y2="319.60501">
			<stop offset="0" stop-color="#FCA100"/>
			<stop offset="1" stop-color="#FFBC0A"/>
		</linearGradient>
	</defs>
	<path fill="url(#gradient_4)" transform="scale(0.666667 0.666667)" d="M441.016 332.812C442.821 332.464 444.971 332.664 446.815 332.663C450.368 332.66 453.921 332.707 457.474 332.751C468.541 332.886 479.608 332.933 490.675 332.988C487.083 343.907 483.778 355.908 476.336 364.912C473.638 368.176 470.4 370.761 467.012 373.264C463.239 375.835 459.014 378.043 454.521 379.012C444.422 381.191 432.047 377.925 423.499 372.381C433.97 360.894 437.269 347.475 441.016 332.812Z"/>
	<path fill="#FB2576" transform="scale(0.666667 0.666667)" d="M387.488 369.782C380.577 375.606 371.458 379.304 362.447 379.89C352.959 380.506 343.494 377.884 336.274 371.596C338.558 369.323 340.828 367.068 342.733 364.456C349.159 355.646 353.647 343.339 355.954 332.687L407.887 332.745C403.922 345.495 396.521 359.934 387.488 369.782Z"/>
	<defs>
		<linearGradient id="gradient_5" gradientUnits="userSpaceOnUse" x1="299.43799" y1="394.68799" x2="299.51001" y2="419.56799">
			<stop offset="0" stop-color="#71006C"/>
			<stop offset="1" stop-color="#CE1A91"/>
		</linearGradient>
	</defs>
	<path fill="url(#gradient_5)" transform="scale(0.666667 0.666667)" d="M299.599 419.381L299.232 394.566C300.809 393.758 306.541 394.437 308.651 394.46C318.26 394.566 327.87 394.615 337.48 394.67C382.459 394.927 427.428 394.89 472.405 395.576L472.381 402.813L472.474 411.541L472.484 419.665L472.029 417.811L471.771 416.55L471.345 416.515L470.839 416.419C469.538 416.181 468.16 416.361 466.883 416.049C465.22 415.644 463.101 414.6 461.491 413.923C455.997 411.614 449.765 410.907 444.11 409.057L440.033 408.188C438.874 407.893 438.264 407.759 437.25 407.062C438.255 406.811 438.695 407.302 439.711 407.086L439.688 406.684C438.837 406.497 438.616 406.59 438.001 405.932C437.096 405.648 436.552 405.641 435.614 405.765L435.188 405.184C433.709 405.376 433.465 405.916 431.913 405.71L431.438 405.184C430.675 405.022 430.113 404.89 429.34 405.04L429.017 404.844C427.862 404.173 427.221 404.875 426.246 404.456C425.749 404.243 425.398 404.264 424.883 404.173L423.938 403.928L423.472 403.819L422.369 403.483C421.4 403.162 420.458 403.038 419.464 402.841C418.391 402.63 417.275 402.055 416.193 401.744L415.571 401.525C414.72 401.23 413.879 401.128 413.03 400.816C410.666 399.949 407.833 399.813 405.365 399.126C402.596 398.354 398.199 397.745 395.344 397.939C396.476 399.459 397.636 400.242 399.27 401.167L399.842 401.1C400.779 401.003 400.167 401.033 401.012 401.113C402.003 401.207 402.918 401.119 403.875 401.438L404.293 401.94C405.66 401.339 406.022 401.271 407.531 401.344L407.36 401.785C406.63 401.992 406.701 401.854 406.213 402.53C404.504 402.548 402.907 402.2 401.264 402.175C399.096 402.141 395.733 402.648 393.752 401.917L393.333 402.053C390.437 402.758 387.056 401.662 384.153 402.392C382.775 402.738 381.3 402.671 379.873 402.941C378.861 403.133 377.726 403.164 376.687 403.316L362.062 405.942C360.013 406.351 357.896 406.794 355.831 407.097C354.694 407.264 353.442 407.22 352.371 407.625L352.312 408.083C349.938 409.134 346.721 409.34 344.136 409.758C337.06 410.903 329.926 411.668 322.875 412.819C320.127 413.267 317.145 413.106 314.462 413.763C312.996 414.122 311.433 414.016 309.938 414.31C307.219 414.845 304.435 414.435 301.875 415.41L300.703 415.688C300.067 416.939 299.824 418.001 299.599 419.381Z"/>
	<path fill="#960482" transform="scale(0.666667 0.666667)" d="M472.381 402.813L472.474 411.541L471.884 408.938C470.029 408.731 467.917 408.703 466.11 408.261L450.009 403.821L449.816 403.312L452.22 403.459L452.625 403.5C453.741 402.384 454.144 403.225 455.062 403.5C455.675 403.684 457.186 403.5 457.875 403.5L458.344 404.156L460.688 404.25L460.875 403.688L461.625 403.5L462.094 404.156L464.625 404.25L464.816 403.688L465.75 403.5L466.219 404.156C467.834 403.349 467.692 404.83 468.844 405.281C469.213 405.426 470.364 405.281 470.814 405.281C470.448 405.265 470.06 405.268 469.708 405.148C468.823 404.848 468.395 404.295 468 403.5L468.375 402.941L469.875 403.5L470.25 402.938L472.381 402.813Z"/>
	<defs>
		<linearGradient id="gradient_6" gradientUnits="userSpaceOnUse" x1="395.43799" y1="398.06201" x2="396.17099" y2="429.88101">
			<stop offset="0" stop-color="#A41289"/>
			<stop offset="1" stop-color="#FF3596"/>
		</linearGradient>
	</defs>
	<path fill="url(#gradient_6)" transform="scale(0.666667 0.666667)" d="M299.599 419.381C299.824 418.001 300.067 416.939 300.703 415.688L301.875 415.41C304.435 414.435 307.219 414.845 309.938 414.31C311.433 414.016 312.996 414.122 314.462 413.763C317.145 413.106 320.127 413.267 322.875 412.819C329.926 411.668 337.06 410.903 344.136 409.758C346.721 409.34 349.938 409.134 352.312 408.083L352.371 407.625C353.442 407.22 354.694 407.264 355.831 407.097C357.896 406.794 360.013 406.351 362.062 405.942L376.687 403.316C377.726 403.164 378.861 403.133 379.873 402.941C381.3 402.671 382.775 402.738 384.153 402.392C387.056 401.662 390.437 402.758 393.333 402.053L393.752 401.917C395.733 402.648 399.096 402.141 401.264 402.175C402.907 402.2 404.504 402.548 406.213 402.53C406.701 401.854 406.63 401.992 407.36 401.785L407.531 401.344C406.022 401.271 405.66 401.339 404.293 401.94L403.875 401.438C402.918 401.119 402.003 401.207 401.012 401.113C400.167 401.033 400.779 401.003 399.842 401.1L399.27 401.167C397.636 400.242 396.476 399.459 395.344 397.939C398.199 397.745 402.596 398.354 405.365 399.126C407.833 399.813 410.666 399.949 413.03 400.816C413.879 401.128 414.72 401.23 415.571 401.525L416.193 401.744C417.275 402.055 418.391 402.63 419.464 402.841C420.458 403.038 421.4 403.162 422.369 403.483L423.472 403.819L423.938 403.928L424.883 404.173C425.398 404.264 425.749 404.243 426.246 404.456C427.221 404.875 427.862 404.173 429.017 404.844L429.34 405.04C430.113 404.89 430.675 405.022 431.438 405.184L431.913 405.71C433.465 405.916 433.709 405.376 435.188 405.184L435.614 405.765C436.552 405.641 437.096 405.648 438.001 405.932C438.616 406.59 438.837 406.497 439.688 406.684L439.711 407.086C438.695 407.302 438.255 406.811 437.25 407.062C438.264 407.759 438.874 407.893 440.033 408.188L444.11 409.057C449.765 410.907 455.997 411.614 461.491 413.923C463.101 414.6 465.22 415.644 466.883 416.049C468.16 416.361 469.538 416.181 470.839 416.419L471.345 416.515L471.771 416.55L472.029 417.811L471.896 418.366C471.756 418.99 471.695 419.555 471.656 420.189C470.803 420.876 467.789 420.635 466.63 420.494L465.19 420.191C464.126 419.964 463.04 419.801 461.972 419.58C461.016 419.382 460.549 419.573 459.64 419.858C458.282 421.727 458.965 426.501 458.781 428.959L458.73 425.671L458.571 421.113L448.307 420.795L429.569 420.676C427.566 420.302 425.324 420.404 423.287 420.333C419.51 420.201 415.735 420.1 411.958 420.28L356.709 420.383C353.061 420.249 349.448 420.246 345.803 420.468C342.036 420.696 337.587 421.839 333.808 421.086C330.527 421.094 314.678 420.495 312.79 421.543C312.45 422.685 312.512 423.295 312.695 424.439L311.994 425.13L311.903 425.036C311.468 424.474 311.372 424.207 310.708 423.893L308.98 424.184C307.962 424.286 306.897 424.528 305.879 424.547C304.84 424.566 303.656 424.111 302.643 424.287C301.765 424.438 301.654 424.699 300.664 424.512L299.592 422.202L299.599 419.381Z"/>
	<path fill="#FB2576" transform="scale(0.666667 0.666667)" d="M333.808 421.086C331.825 420.578 330.469 420.783 328.5 420.658C327.243 420.578 325.827 420.416 324.562 420.566C323.782 420.659 323.491 420.764 322.676 420.664C321.869 420.565 322.13 420.536 321.469 420.601C319.753 420.769 317.946 420.66 316.219 420.656L317.001 419.875C317.899 419.865 318.72 419.863 319.6 419.658C321.034 419.324 322.491 419.638 323.915 419.274C325.449 418.882 327.298 418.938 328.9 418.685C331.873 418.214 335.009 418.355 337.937 417.818L354.562 416.066L368.062 414.192C368.997 414 369.963 414.009 370.873 413.816C373.544 413.251 376.253 413.409 378.935 413.066C384.258 412.384 389.753 412.65 395.147 412.658C397.423 412.661 400.433 412.288 402.619 412.847C404.258 413.266 406.103 413.009 407.805 413.22C409.694 413.454 411.704 413.191 413.545 413.578C417.786 414.471 422.558 413.883 426.835 414.681L440.56 416.568L454.312 418.679L458.25 419.433L458.441 419.812L458.062 420.375L448.558 420.229L448.307 420.795L429.569 420.676C427.566 420.302 425.324 420.404 423.287 420.333C419.51 420.201 415.735 420.1 411.958 420.28L356.709 420.383C353.061 420.249 349.448 420.246 345.803 420.468C342.036 420.696 337.587 421.839 333.808 421.086Z"/>
	<path fill="white" transform="scale(0.666667 0.666667)" d="M584.576 315.637C586.782 315.465 588.727 315.592 590.833 316.312L591.375 315.941L594.048 316.381C594.574 316.448 594.866 316.607 595.312 316.875L596.061 316.821C596.733 316.869 597.91 317.441 598.628 317.626C599.311 317.803 599.766 318.175 600.375 318.443L600.973 318.596C601.698 318.792 601.829 319.008 602.437 319.34C603.306 319.814 604.349 320.307 605.259 320.699C607.055 321.471 608.763 322.889 610.314 324.076C614.624 327.375 619.473 331.476 622.519 335.981L628.235 344.545C629.608 346.501 630.356 349.588 630.075 351.927C627.779 356.268 621.405 359.423 617.579 362.489C613.158 366.032 610.579 370.426 609.957 376.122C609.733 378.17 610.385 380.468 611.651 382.092C612.78 383.541 614.964 385.249 616.845 385.421L617.378 385.435L618.184 386.438L618.75 386.158C619.354 385.912 619.532 385.813 620.107 386.102L620.155 386.455C607.262 391.29 594.626 397.685 583.767 406.224L584.576 315.637Z"/>
	<defs>
		<linearGradient id="gradient_7" gradientUnits="userSpaceOnUse" x1="503.43799" y1="377.06201" x2="509.285" y2="325.60999">
			<stop offset="0" stop-color="#00C3FF"/>
			<stop offset="1" stop-color="#18F6FE"/>
		</linearGradient>
	</defs>
	<path fill="url(#gradient_7)" transform="scale(0.666667 0.666667)" d="M506.491 332.065L566.485 331.808C564.46 335.934 562.999 340.306 560.983 344.438C554.404 357.922 544.578 366.388 531.097 372.592C526.925 374.302 522.65 375.625 518.192 376.349C503.071 378.802 488.881 375.965 476.331 366.953C476.481 365.979 477.579 364.803 478.142 363.982C479.6 361.854 481.027 359.732 482.221 357.443C486.478 349.286 489.786 341.213 492.11 332.296L506.491 332.065Z"/>
	<defs>
		<linearGradient id="gradient_8" gradientUnits="userSpaceOnUse" x1="471.93799" y1="543.56201" x2="306.19699" y2="428.41299">
			<stop offset="0" stop-color="#FF9357"/>
			<stop offset="1" stop-color="#FF7484"/>
		</linearGradient>
	</defs>
	<path fill="url(#gradient_8)" transform="scale(0.666667 0.666667)" d="M472.029 417.811L472.484 419.665L472.455 429.087L472.006 544.134L298.922 543.845C298.922 521.43 299.212 499.02 299.248 476.604C299.258 470.1 299.271 463.596 299.288 457.092C299.293 455.057 298.935 452.146 299.316 450.205L299.592 422.202L300.664 424.512C301.654 424.699 301.765 424.438 302.643 424.287C303.656 424.111 304.84 424.566 305.879 424.547C306.897 424.528 307.962 424.286 308.98 424.184L310.708 423.893C311.372 424.207 311.468 424.474 311.903 425.036L311.994 425.13L312.695 424.439C312.512 423.295 312.45 422.685 312.79 421.543C314.678 420.495 330.527 421.094 333.808 421.086C337.587 421.839 342.036 420.696 345.803 420.468C349.448 420.246 353.061 420.249 356.709 420.383L411.958 420.28C415.735 420.1 419.51 420.201 423.287 420.333C425.324 420.404 427.566 420.302 429.569 420.676L448.307 420.795L458.571 421.113L458.73 425.671L458.781 428.959C458.965 426.501 458.282 421.727 459.64 419.858C460.549 419.573 461.016 419.382 461.972 419.58C463.04 419.801 464.126 419.964 465.19 420.191L466.63 420.494C467.789 420.635 470.803 420.876 471.656 420.189C471.695 419.555 471.756 418.99 471.896 418.366L472.029 417.811Z"/>
	<path fill="#FB2576" transform="scale(0.666667 0.666667)" d="M472.029 417.811L472.484 419.665L472.455 429.087L471.271 427.875C471.413 426.993 471.317 427.432 471.562 426.559L471.191 425.812L471.658 425.25C471.666 424.546 471.646 423.883 471.562 423.184C468.718 423.19 465.962 423.297 463.167 422.822C462.432 422.698 461.085 422.948 460.5 423.371L459.375 424.688L463.021 425.423L462.929 426.179C461.969 426.557 461.321 426.607 460.31 426.627C460.149 427.354 460.008 428.027 459.735 428.723C458.648 431.49 459.238 434.446 458.915 437.331C458.539 434.675 458.792 431.658 458.781 428.959C458.965 426.501 458.282 421.727 459.64 419.858C460.549 419.573 461.016 419.382 461.972 419.58C463.04 419.801 464.126 419.964 465.19 420.191L466.63 420.494C467.789 420.635 470.803 420.876 471.656 420.189C471.695 419.555 471.756 418.99 471.896 418.366L472.029 417.811Z"/>
	<path fill="#FB2576" transform="scale(0.666667 0.666667)" d="M299.592 422.202L300.664 424.512C301.654 424.699 301.765 424.438 302.643 424.287C303.656 424.111 304.84 424.566 305.879 424.547C306.897 424.528 307.962 424.286 308.98 424.184L310.708 423.893C311.372 424.207 311.468 424.474 311.903 425.036L311.994 425.13C312.532 429.446 311.942 434.037 311.996 438.402C311.962 444.01 311.926 449.618 311.888 455.226C311.866 458.336 312.066 461.62 311.697 464.696C310.789 458.824 312.322 452.842 310.523 446.991L310.406 446.625C311.049 445.769 310.39 444.282 310.316 443.25L310.688 442.875C310.721 441.532 310.977 439.49 310.115 438.343C309.46 437.471 307.45 436.846 306.392 436.813L305.815 436.864C305.226 436.42 304.68 436.314 303.936 436.384C303.288 436.446 303.162 436.655 302.473 436.471C301.719 436.27 301.018 436.763 300.292 437.06C299.978 438.159 300.027 439.469 300.085 440.603C300.238 443.583 299.774 447.237 299.316 450.205L299.592 422.202Z"/>
	<path fill="#3F0071" transform="scale(0.666667 0.666667)" d="M422.26 520.747C423.301 520.441 424.908 520.6 426.014 520.553C428.27 520.457 430.516 520.255 432.762 520.021C438.989 519.371 445.149 517.967 451.347 517.061C453.722 516.714 456.138 516.931 458.49 516.514L458.321 534.646L422.324 534.497C421.865 533.56 422.127 531.778 422.139 530.685C422.176 527.372 422.217 524.059 422.26 520.747Z"/>
	<path fill="#3F0071" transform="scale(0.666667 0.666667)" d="M311.759 514.8L312.188 513.927C320.732 513.552 329.478 514.038 338.049 514.083C338.592 514.086 338.41 514 338.891 514.476L339.136 514.776L339.051 535.556C337.355 534.95 334.414 535.248 332.552 535.235C327.376 535.199 322.199 535.182 317.022 535.16C315.428 535.153 313.303 535.417 311.78 534.956L311.759 514.8Z"/>
	<path fill="#9D40EB" transform="scale(0.666667 0.666667)" d="M429.569 420.676L448.307 420.795L458.571 421.113L458.73 425.671L458.781 428.959C458.792 431.658 458.539 434.675 458.915 437.331L458.984 448.013L458.656 447.681C454.774 443.489 449.624 439.818 444.754 436.85C440.012 439.518 436.298 443.23 431.006 444.986C428.635 445.773 425.154 446.885 422.812 445.691L422.559 445.059L421.862 447.891L421.787 425.285L422.088 421.071C424.54 420.656 427.087 420.725 429.569 420.676Z"/>
	<path fill="#E8C4FF" transform="scale(0.666667 0.666667)" d="M429.569 420.676L448.307 420.795L458.571 421.113L458.73 425.671C451.188 425.678 443.646 425.69 436.104 425.668C431.367 425.653 426.489 425.858 421.787 425.285L422.088 421.071C424.54 420.656 427.087 420.725 429.569 420.676Z"/>
	<path fill="#5212FF" transform="scale(0.666667 0.666667)" d="M421.862 447.891L422.559 445.059L422.812 445.691C425.154 446.885 428.635 445.773 431.006 444.986C436.298 443.23 440.012 439.518 444.754 436.85C449.624 439.818 454.774 443.489 458.656 447.681L458.984 448.013L459.001 464.336C454.86 463.419 450.455 465.766 447.006 467.985C441.93 471.25 437.039 475.302 431.191 477.118C428.206 478.045 425.225 478.188 422.127 478.219L421.862 447.891Z"/>
	<path fill="#3F0071" transform="scale(0.666667 0.666667)" d="M354.505 513.133C361.424 513.108 368.366 513.256 375.188 511.901C378.808 511.182 382.258 509.655 385.822 508.686C386.678 508.453 388.254 507.927 389.075 508.014C392.188 508.343 395.97 510.651 399.035 511.634C402.522 512.753 406.459 513.375 410.082 513.959L409.796 535.378L354.692 535.417C353.951 533.569 354.393 530.336 354.404 528.351C354.431 523.278 354.467 518.206 354.505 513.133Z"/>
	<path fill="#3804E3" transform="scale(0.666667 0.666667)" d="M422.127 478.219C425.225 478.188 428.206 478.045 431.191 477.118C437.039 475.302 441.93 471.25 447.006 467.985C450.455 465.766 454.86 463.419 459.001 464.336L458.49 516.514C456.138 516.931 453.722 516.714 451.347 517.061C445.149 517.967 438.989 519.371 432.762 520.021C430.516 520.255 428.27 520.457 426.014 520.553C424.908 520.6 423.301 520.441 422.26 520.747L422.127 478.219Z"/>
	<path fill="#5212FF" transform="scale(0.666667 0.666667)" d="M311.996 438.402C319.589 439.578 324.524 442.624 329.117 448.851C331.533 452.127 333.526 456.028 337.906 456.763C338.297 456.829 338.709 456.903 339.107 456.915C339.349 469.769 339.335 482.625 339.342 495.48C339.345 501.748 339.869 508.581 339.136 514.776L338.891 514.476C338.41 514 338.592 514.086 338.049 514.083C329.478 514.038 320.732 513.552 312.188 513.927L311.759 514.8L311.697 464.696C312.066 461.62 311.866 458.336 311.888 455.226C311.926 449.618 311.962 444.01 311.996 438.402Z"/>
	<defs>
		<linearGradient id="gradient_9" gradientUnits="userSpaceOnUse" x1="354.93799" y1="535.31201" x2="277.94299" y2="501.86301">
			<stop offset="0" stop-color="#FF4A7D"/>
			<stop offset="1" stop-color="#FF74C7"/>
		</linearGradient>
	</defs>
	<path fill="url(#gradient_9)" transform="scale(0.666667 0.666667)" d="M333.808 421.086C337.587 421.839 342.036 420.696 345.803 420.468C349.448 420.246 353.061 420.249 356.709 420.383L355.586 420.821C355.355 422.376 355.414 423.929 355.427 425.497L355.043 446.127L354.505 513.133C354.467 518.206 354.431 523.278 354.404 528.351C354.393 530.336 353.951 533.569 354.692 535.417C350.922 535.651 346.918 536.167 343.156 535.946L342.551 536.211C341.614 536.417 339.834 536.1 339.051 535.556L339.136 514.776C339.869 508.581 339.345 501.748 339.342 495.48C339.335 482.625 339.349 469.769 339.107 456.915C338.709 456.903 338.297 456.829 337.906 456.763C333.526 456.028 331.533 452.127 329.117 448.851C324.524 442.624 319.589 439.578 311.996 438.402C311.942 434.037 312.532 429.446 311.994 425.13L312.695 424.439C312.512 423.295 312.45 422.685 312.79 421.543C314.678 420.495 330.527 421.094 333.808 421.086Z"/>
	<path fill="white" transform="scale(0.666667 0.666667)" d="M339.165 421.487L342.188 421.541C343.866 424.093 343.145 523.257 343.156 535.946L342.551 536.211C341.614 536.417 339.834 536.1 339.051 535.556L339.136 514.776C339.869 508.581 339.345 501.748 339.342 495.48C339.335 482.625 339.349 469.769 339.107 456.915L338.976 424.75C338.606 423.388 338.673 422.802 339.165 421.487Z"/>
	<path fill="#9D40EB" transform="scale(0.666667 0.666667)" d="M312.79 421.543L339.165 421.487C338.673 422.802 338.606 423.388 338.976 424.75L339.107 456.915C338.709 456.903 338.297 456.829 337.906 456.763C333.526 456.028 331.533 452.127 329.117 448.851C324.524 442.624 319.589 439.578 311.996 438.402C311.942 434.037 312.532 429.446 311.994 425.13L312.695 424.439C312.512 423.295 312.45 422.685 312.79 421.543Z"/>
	<path fill="#E8C4FF" transform="scale(0.666667 0.666667)" d="M312.79 421.543L339.165 421.487C338.673 422.802 338.606 423.388 338.976 424.75C332.554 425.277 325.835 425.086 319.386 425.046C317.43 425.034 314.413 425.434 312.695 424.439C312.512 423.295 312.45 422.685 312.79 421.543Z"/>
	<path fill="#5212FF" transform="scale(0.666667 0.666667)" d="M356.709 420.383L411.958 420.28C411.922 422.127 412.025 424.067 411.556 425.862L411.294 426.098C410.643 430.312 410.949 434.94 410.912 439.215C410.825 449.038 411.06 458.994 410.34 468.792L410.082 513.959C406.459 513.375 402.522 512.753 399.035 511.634C395.97 510.651 392.188 508.343 389.075 508.014C388.254 507.927 386.678 508.453 385.822 508.686C382.258 509.655 378.808 511.182 375.188 511.901C368.366 513.256 361.424 513.108 354.505 513.133L355.043 446.127L355.427 425.497C355.414 423.929 355.355 422.376 355.586 420.821L356.709 420.383Z"/>
	<path fill="#9D40EB" transform="scale(0.666667 0.666667)" d="M356.709 420.383L411.958 420.28C411.922 422.127 412.025 424.067 411.556 425.862L411.294 426.098C410.643 430.312 410.949 434.94 410.912 439.215C410.825 449.038 411.06 458.994 410.34 468.792C410.074 466.847 410.255 464.715 410.262 462.746L407.205 464.639C405.507 465.788 403.229 467.311 401.108 467.381C400.292 467.408 398.504 466.599 397.671 466.34C390.637 464.147 384.642 460.604 378.556 456.535C374.291 453.684 370.115 450.475 365.439 448.314C362.124 446.783 358.553 446.797 355.043 446.127L355.427 425.497C355.414 423.929 355.355 422.376 355.586 420.821L356.709 420.383Z"/>
	<path fill="#FCDDE2" transform="scale(0.666667 0.666667)" d="M356.709 420.383L411.958 420.28C411.922 422.127 412.025 424.067 411.556 425.862L411.294 426.098C404.589 425.314 397.603 425.683 390.856 425.664C379.046 425.631 367.236 425.634 355.427 425.497C355.414 423.929 355.355 422.376 355.586 420.821L356.709 420.383Z"/>
</svg>
